<?xml version="1.0" encoding="iso-8859-1"?>
<!-- Generator: Adobe Illustrator 18.0.0, SVG Export Plug-In . SVG Version: 6.00 Build 0)  -->
<!DOCTYPE svg PUBLIC "-//W3C//DTD SVG 1.1//EN" "http://www.w3.org/Graphics/SVG/1.1/DTD/svg11.dtd">
<svg version="1.1" id="&#x30EC;&#x30A4;&#x30E4;&#x30FC;_1"
	 xmlns="http://www.w3.org/2000/svg" xmlns:xlink="http://www.w3.org/1999/xlink" x="0px" y="0px" viewBox="0 0 600 250"
	 style="enable-background:new 0 0 600 250;" xml:space="preserve">
<g>
	<polygon style="fill:#1E2678;" points="569.08,233.932 19.758,233.932 22.618,201.264 571.936,201.264 	"/>
	<g>
		<polygon style="fill:#1E2678;" points="318.643,105.53 315.557,80.83 273.333,80.83 275.401,105.53 		"/>
		<polygon style="fill:#1E2678;" points="255.43,139.414 210.813,139.414 203.401,164.112 249.281,164.112 		"/>
		<polygon style="fill:#1E2678;" points="201.697,168.31 194.175,193.389 241.534,193.389 247.686,168.71 201.658,168.71 		"/>
		<g>
			<polygon style="fill:#1E2678;" points="256.221,168.71 250.072,193.389 324.392,193.389 326.554,168.71 			"/>
		</g>
		<polygon style="fill:#1E2678;" points="311.89,51.54 237.161,51.54 229.756,76.234 314.975,76.234 		"/>
		<polygon style="fill:#1E2678;" points="262.731,110.128 219.596,110.128 212.191,134.816 256.581,134.816 		"/>
		<polygon style="fill:#1E2678;" points="278.238,139.414 280.307,164.112 325.974,164.112 322.89,139.414 		"/>
		<polygon style="fill:#1E2678;" points="270.028,80.83 228.378,80.83 220.972,105.53 263.876,105.53 		"/>
		<polygon style="fill:#1E2678;" points="319.221,110.128 275.789,110.128 277.85,134.816 322.308,134.816 		"/>
		<path style="fill:#1E2678;" d="M582.802,76.187l2.157-24.648H474.607l-2.16,24.685c0,0,1.501,0,2.405,0
			c0.052,0,0.079,0.009,0.125,0.009h50.752l0.01-0.046H582.802z"/>
		<path style="fill:#1E2678;" d="M474.931,161.474c-0.087,0.946-0.312,1.823-0.636,2.638h43.752l2.157-24.698h-43.342
			L474.931,161.474z"/>
		<polygon style="fill:#1E2678;" points="477.255,134.816 520.614,134.816 520.614,134.816 577.699,134.816 579.861,110.128 
			479.419,110.128 		"/>
		<path style="fill:#1E2678;" d="M481.749,83.464l-1.925,22.066h43.348l2.162-24.7h-43.754
			C481.765,81.638,481.84,82.514,481.749,83.464z"/>
		<path style="fill:#1E2678;" d="M466.767,168.71c-0.914,0-2.413,0-2.413,0l-2.162,24.678h110.437l2.155-24.678h-57.139H466.767z"/>
		<path style="fill:#1E2678;" d="M410.844,139.414c1.733,1.195,2.448,2.852,2.151,5.999l-1.052,12.496
			c-0.226,2.573-1.409,4.851-3.215,6.202h46.025l2.162-24.698H410.844z"/>
		<g>
			<path style="fill:#1E2678;" d="M386.763,97.343l0.802-9.648c0.493-3.925,1.719-6.082,3.48-6.865h-46.429l-2.161,24.7h49.619
				C388.86,104.836,386.362,101.95,386.763,97.343z"/>
		</g>
		<path style="fill:#1E2678;" d="M334.926,193.389v0.046c37.551,0,117.267-0.046,117.267-0.046l2.157-24.678H337.082
			L334.926,193.389z"/>
		<path style="fill:#1E2678;" d="M463.367,51.96h-93.464c-12.514,0-23.653,10.243-24.75,22.757l-0.133,1.517h116.228L463.367,51.96z
			"/>
		<path style="fill:#1E2678;" d="M341.744,113.717c-1.1,12.514,8.395,21.113,20.909,21.099h94.666l0.96-10.966
			c0.447-5.152-0.505-12.026-8.326-13.722H342.059L341.744,113.717z"/>
	</g>
	<path style="fill:#1E2678;" d="M172.942,100.937c11.988-2.409,22.211-14.28,24.167-36.633
		c2.377-27.191-10.553-45.098-37.142-45.098c-24.059,0-121.426,0-121.426,0l-2.097,23.994c12.485,0,14.569,4.527,13.737,13.942
		c-1.452,16.628-7.292,83.386-8.758,100.13c-0.653,7.464-4.611,10.964-15.916,10.964l-2.201,25.152c0,0,26.143,0,56.994,0
		c17.015,0,35.444,0,51.726,0c3.285,0,6.482,0,9.558,0c34.13,0,53.814-21.365,57.056-47.655
		C201.687,121.007,192.547,106.289,172.942,100.937z M118.33,93.895c-2.539,0-13.984,0-13.984,0l4.373-50.018c0,0,9.78,0,15.282,0
		c14.11,0,20.124,5.489,18.508,23.925C140.889,86.233,133.377,93.895,118.33,93.895z M140.635,142.806
		c-1.472,16.862-8.391,25.904-25.652,25.904H97.659l4.29-48.981c0,0,12.317,0,18.536,0
		C133.527,119.73,142.109,125.949,140.635,142.806z"/>
</g>
</svg>
